<?xml version="1.0" encoding="UTF-8"?>
<svg version="1.1" xmlns="http://www.w3.org/2000/svg" width="512" height="512">
<path d="M0 0 C168.96 0 337.92 0 512 0 C512 168.96 512 337.92 512 512 C343.04 512 174.08 512 0 512 C0 343.04 0 174.08 0 0 Z " fill="#070739" transform="translate(0,0)"/>
<path d="M0 0 C0.90363281 0.32484375 1.80726563 0.6496875 2.73828125 0.984375 C6.91241611 2.5549612 9.92130516 3.7349631 13 7 C14.42840085 8.07470159 15.86674093 9.13626586 17.3125 10.1875 C21.65788427 13.53174181 25.32260273 17.17018532 28 22 C28 22.99 28 23.98 28 25 C28.66 25 29.32 25 30 25 C30.33 22.69 30.66 20.38 31 18 C37.93 18 44.86 18 52 18 C52 26.25 52 34.5 52 43 C47.38 43 42.76 43 38 43 C38.7425 45.2584375 38.7425 45.2584375 39.5 47.5625 C44.06205323 65.89760919 40.84810133 85.3727442 35 103 C35.99 102.67 36.98 102.34 38 102 C34.93669246 121.06058027 23.47324528 140.44748709 8.1640625 152.171875 C-6.44030603 161.74448631 -22.71270307 165.7878285 -40.12060547 162.61328125 C-55.55526666 158.72447772 -68.55463738 147.31754539 -77 134.125 C-78.01470907 132.42536231 -79.01559141 130.71736499 -80 129 C-80.99796093 127.33211159 -81.99736829 125.66508481 -83 124 C-83.33 125.65 -83.66 127.3 -84 129 C-90.93 129 -97.86 129 -105 129 C-105 120.75 -105 112.5 -105 104 C-100.05 104 -95.1 104 -90 104 C-90.32355469 102.42734375 -90.64710938 100.8546875 -90.98046875 99.234375 C-92.07149734 93.20333101 -92.34722398 87.36886199 -92.3125 81.25 C-92.30686035 80.20013916 -92.3012207 79.15027832 -92.29541016 78.06860352 C-92.00805316 59.57390872 -86.29861838 43.86040936 -77 28 C-76.34 28 -75.68 28 -75 28 C-74.80019531 27.31679687 -74.60039062 26.63359375 -74.39453125 25.9296875 C-69.58566515 15.82702762 -58.55219861 8.03081942 -48.9375 2.94140625 C-45.48386198 1.83458875 -43.53168744 2.4045675 -40 3 C-36.69093732 2.09144799 -36.69093732 2.09144799 -33.4375 0.625 C-22.11861472 -4.14786329 -11.52493223 -4.32413992 0 0 Z " fill="#06073A" transform="translate(283,134)"/>
<path d="M0 0 C0 0.66 0 1.32 0 2 C-0.61875 2.0825 -1.2375 2.165 -1.875 2.25 C-4.69616939 3.24570684 -4.72716664 4.36004932 -6 7 C-6.95880034 8.28187437 -7.95993957 9.5331293 -9 10.75 C-9.515625 11.36359375 -10.03125 11.9771875 -10.5625 12.609375 C-12 14 -12 14 -14 14 C-14 14.99 -14 15.98 -14 17 C-14.66 17 -15.32 17 -16 17 C-16.0825 17.515625 -16.165 18.03125 -16.25 18.5625 C-17 21 -17 21 -18.75 23.8125 C-29.58659069 42.20306449 -30.69524564 66.48490315 -25.76831055 86.80712891 C-20.97021079 104.97326204 -11.16732079 121.77018319 5.29296875 131.53125 C17.3514064 138.07377894 30.22056315 139.89348337 43.82421875 137.50390625 C45.98846759 136.8161647 47.95495465 135.98435385 50 135 C51.15435547 134.54173828 51.15435547 134.54173828 52.33203125 134.07421875 C66.5868535 127.90087053 75.79910675 115.24964358 83 102 C84.37047988 105.04464564 83.90822395 106.27079974 82.8125 109.50390625 C82.22367118 110.8635167 81.61852896 112.21614126 81 113.5625 C80.67676758 114.27631836 80.35353516 114.99013672 80.02050781 115.72558594 C71.65743272 133.77649923 59.70538275 146.94716411 41.4609375 155.17578125 C27.86473733 159.72942924 12.33163251 160.11812113 -0.96484375 154.53515625 C-14.45255658 147.71318567 -24.53405173 137.02483367 -32 124 C-32.99796093 122.33211159 -33.99736829 120.66508481 -35 119 C-35.33 120.65 -35.66 122.3 -36 124 C-42.93 124 -49.86 124 -57 124 C-57 115.75 -57 107.5 -57 99 C-52.05 99 -47.1 99 -42 99 C-42.32355469 97.42734375 -42.64710938 95.8546875 -42.98046875 94.234375 C-44.07149734 88.20333101 -44.34722398 82.36886199 -44.3125 76.25 C-44.30686035 75.20013916 -44.3012207 74.15027832 -44.29541016 73.06860352 C-44.00805316 54.57390872 -38.29861838 38.86040936 -29 23 C-28.34 23 -27.68 23 -27 23 C-26.80664062 22.32066406 -26.61328125 21.64132813 -26.4140625 20.94140625 C-24.44578495 16.84717145 -21.58223083 14.10775018 -18.375 10.9375 C-17.78332031 10.32583984 -17.19164062 9.71417969 -16.58203125 9.08398438 C-11.97473402 4.48166263 -6.78883221 0 0 0 Z " fill="#43298B" transform="translate(235,139)"/>
<path d="M0 0 C0.90363281 0.32484375 1.80726563 0.6496875 2.73828125 0.984375 C6.91241611 2.5549612 9.92130516 3.7349631 13 7 C14.42840085 8.07470159 15.86674093 9.13626586 17.3125 10.1875 C21.65788427 13.53174181 25.32260273 17.17018532 28 22 C28 22.99 28 23.98 28 25 C28.66 25 29.32 25 30 25 C30.33 22.69 30.66 20.38 31 18 C37.93 18 44.86 18 52 18 C52 26.25 52 34.5 52 43 C47.38 43 42.76 43 38 43 C38.495 44.505625 38.99 46.01125 39.5 47.5625 C44.89026711 69.22624019 40.37387534 92.90713365 29.75 112.1875 C22.20937787 124.5326222 11.3640035 135.24326062 -3 139 C-3.66 138.67 -4.32 138.34 -5 138 C-4.31035156 137.53851563 -3.62070312 137.07703125 -2.91015625 136.6015625 C11.08700105 126.8861145 20.8361548 114.80758452 24.39453125 97.8515625 C25 95 25 95 26.0625 91.765625 C27.21699786 87.12839192 27.25655864 82.87914217 27.1875 78.125 C27.18685547 77.25875 27.18621094 76.3925 27.18554688 75.5 C27.51735092 71.42580641 27.51735092 71.42580641 26 68 C25.75020555 66.08591243 25.52591986 64.16848389 25.3125 62.25 C23.69021702 51.2905772 18.57391137 41.81110634 12 33 C11.39929688 32.16855469 10.79859375 31.33710938 10.1796875 30.48046875 C7.7639865 27.73141833 5.39525139 26.16387152 2.25 24.3125 C0.46808683 23.26061147 -1.29247186 22.16877357 -3 21 C-3 20.34 -3 19.68 -3 19 C-4.39449109 18.516941 -5.79066707 18.03874483 -7.1875 17.5625 C-7.96480469 17.29566406 -8.74210937 17.02882812 -9.54296875 16.75390625 C-20.63576901 13.35023304 -32.55968667 13.86292275 -43 19 C-57.99345619 28.17928552 -67.79402047 41.99160908 -72 59 C-72.33 59 -72.66 59 -73 59 C-72.46376511 52.76241719 -71.4370916 47.17766372 -69.4375 41.25 C-69.04485962 40.08428467 -69.04485962 40.08428467 -68.64428711 38.89501953 C-66.05135904 31.57088367 -62.55034749 25.32390813 -58 19 C-57.20335937 17.88238281 -57.20335937 17.88238281 -56.390625 16.7421875 C-43.02552216 -0.12960073 -20.21087383 -7.58309415 0 0 Z " fill="#38B1DD" transform="translate(283,134)"/>
<path d="M0 0 C0.99 0.33 1.98 0.66 3 1 C2.84660156 1.53625 2.69320312 2.0725 2.53515625 2.625 C1.40104955 7.65811585 1.29411147 12.86169954 1 18 C0.94457031 18.95261719 0.88914063 19.90523437 0.83203125 20.88671875 C0.18305675 43.04456233 6.85092282 65.45709244 21.875 81.9375 C33.05841825 93.74290255 45.96273038 100.77014052 62.375 101.3125 C78.18809943 100.91329132 92.31719739 93.85038867 103.375 82.83203125 C109.4476349 76.28045342 113.8687486 68.8817423 118 61 C118.33 61.66 118.66 62.32 119 63 C117.93904126 65.56020528 116.81962073 67.97489784 115.5625 70.4375 C115.19777588 71.15671631 114.83305176 71.87593262 114.45727539 72.61694336 C106.00541624 88.88001182 93.770601 102.04825903 76 108 C60.36710181 112.30402532 44.5515741 111.4547983 30.30859375 103.49609375 C19.53876362 96.50160313 11.34106368 87.06239913 5 76 C4.00203907 74.33211159 3.00263171 72.66508481 2 71 C1.67 72.65 1.34 74.3 1 76 C-5.93 76 -12.86 76 -20 76 C-20 67.75 -20 59.5 -20 51 C-15.05 51 -10.1 51 -5 51 C-5.48726562 48.64875 -5.48726562 48.64875 -5.984375 46.25 C-7.09394404 40.12580624 -7.29789814 34.21079213 -7.25 28 C-7.25773438 26.99710938 -7.26546875 25.99421875 -7.2734375 24.9609375 C-7.25574149 18.112583 -6.44552496 11.6909037 -5 5 C-4.34 5 -3.68 5 -3 5 C-2.87625 4.360625 -2.7525 3.72125 -2.625 3.0625 C-2.315625 2.0415625 -2.315625 2.0415625 -2 1 C-1.34 0.67 -0.68 0.34 0 0 Z " fill="#9554C3" transform="translate(198,187)"/>
<path d="M0 0 C0.495 0.99 0.495 0.99 1 2 C-0.06095874 4.56020528 -1.18037927 6.97489784 -2.4375 9.4375 C-2.80222412 10.15671631 -3.16694824 10.87593262 -3.54272461 11.61694336 C-11.99458376 27.88001182 -24.229399 41.04825903 -42 47 C-57.63289819 51.30402532 -73.4484259 50.4547983 -87.69140625 42.49609375 C-98.01721512 35.78997375 -107.66510952 26.1898489 -113 15 C-113.6796875 11.67578125 -113.6796875 11.67578125 -114 9 C-112.35 8.34 -110.7 7.68 -109 7 C-105.11790916 9.91156813 -102.20608874 12.8926647 -99.25 16.75 C-90.18629166 28.25919945 -78.31474706 37.60193355 -63.41796875 39.7890625 C-47.90086599 41.14273544 -33.00498026 37.35529578 -20.69140625 27.44921875 C-11.65815037 19.70087163 -5.49080505 10.47554513 0 0 Z " fill="#B463CF" transform="translate(316,248)"/>
<path d="M0 0 C2.62527189 -0.05382106 5.24944713 -0.09358313 7.875 -0.125 C8.62136719 -0.14175781 9.36773437 -0.15851563 10.13671875 -0.17578125 C12.09194461 -0.1933959 14.04742021 -0.10320189 16 0 C18.46278801 2.46278801 18.99771255 4.70676982 20 8 C20.19851563 7.4225 20.39703125 6.845 20.6015625 6.25 C21.81941427 3.57258542 22.76749443 1.94650581 25 0 C29.73070169 -0.7286245 34.24920084 -0.46286541 39 0 C37.74741731 3.37582267 36.31769667 6.22800422 34.28515625 9.1953125 C26.70216891 20.70361094 22.93455975 30.23081974 22 44 C17.38 44 12.76 44 8 44 C8.21269531 42.05673828 8.21269531 42.05673828 8.4296875 40.07421875 C9.60455626 26.98335512 8.47540364 16.05892469 3 4 C2.01 3.34 1.02 2.68 0 2 C0 1.34 0 0.68 0 0 Z " fill="#9455C3" transform="translate(242,191)"/>
<path d="M0 0 C0.90363281 0.32484375 1.80726563 0.6496875 2.73828125 0.984375 C6.91241611 2.5549612 9.92130516 3.7349631 13 7 C14.42840085 8.07470159 15.86674093 9.13626586 17.3125 10.1875 C22.51094898 14.19870125 27.0006194 18.57355223 28.875 25 C28.91625 25.66 28.9575 26.32 29 27 C24.7864247 28.35436349 22.45284473 27.74504858 18.5625 25.75 C15.67118745 23.77544509 13.44245274 21.50351406 11 19 C10.071875 18.278125 9.14375 17.55625 8.1875 16.8125 C7.1046875 15.9153125 7.1046875 15.9153125 6 15 C6 14.34 6 13.68 6 13 C5.19175781 12.814375 5.19175781 12.814375 4.3671875 12.625 C0.5311799 11.61219271 -3.18400989 10.24034439 -6.9296875 8.9375 C-19.00154917 5.25143537 -30.85367627 7.0792008 -42.1328125 12.5078125 C-47.91610495 15.97134419 -52.17758961 19.99020376 -56.34375 25.27734375 C-56.8903125 25.84582031 -57.436875 26.41429687 -58 27 C-58.99 27 -59.98 27 -61 27 C-60.04087716 19.15776032 -53.87957277 13.17854872 -47.8984375 8.42578125 C-33.49984662 -2.27997416 -17.09931862 -6.4156426 0 0 Z " fill="#1ED7D6" transform="translate(283,134)"/>
<path d="M0 0 C3.12492251 -0.05791844 6.24970766 -0.09356746 9.375 -0.125 C10.26445312 -0.14175781 11.15390625 -0.15851563 12.0703125 -0.17578125 C12.92109375 -0.18222656 13.771875 -0.18867188 14.6484375 -0.1953125 C15.82672119 -0.21102295 15.82672119 -0.21102295 17.02880859 -0.22705078 C19 0 19 0 21 2 C21.1953125 4.3828125 21.1953125 4.3828125 21.125 7.125 C21.10695313 8.03507812 21.08890625 8.94515625 21.0703125 9.8828125 C21.04710937 10.58148438 21.02390625 11.28015625 21 12 C21.66 12 22.32 12 23 12 C22.67 17.61 22.34 23.22 22 29 C14.08 29 6.16 29 -2 29 C-2 16.72222222 -2 16.72222222 -1 12.25 C-0.08284037 8.09730503 0.08383236 4.25449212 0 0 Z " fill="#AB5ECA" transform="translate(263,332)"/>
<path d="M0 0 C3.3 0 6.6 0 10 0 C10.50567729 2.56149628 11.00470132 5.12399465 11.5 7.6875 C11.64308594 8.40873047 11.78617188 9.12996094 11.93359375 9.87304688 C12.65571887 13.63841359 13.1824976 17.14473813 13 21 C13.66 21 14.32 21 15 21 C15.23783203 20.10861328 15.23783203 20.10861328 15.48046875 19.19921875 C17.37328222 12.47502505 19.97477228 6.28960388 23 0 C25.97 0 28.94 0 32 0 C31.86722656 1.17175781 31.73445313 2.34351563 31.59765625 3.55078125 C30.64303889 12.02684507 29.71151533 20.4992642 29 29 C26.36 29 23.72 29 21 29 C21.33 24.38 21.66 19.76 22 15 C21.195625 16.5675 20.39125 18.135 19.5625 19.75 C19.11003906 20.63171875 18.65757812 21.5134375 18.19140625 22.421875 C17.16544602 24.64198566 16.48491397 26.61444619 16 29 C14.02 29 12.04 29 10 29 C9.86722656 28.08476562 9.73445312 27.16953125 9.59765625 26.2265625 C9.42105469 25.03804688 9.24445313 23.84953125 9.0625 22.625 C8.88847656 21.44164062 8.71445313 20.25828125 8.53515625 19.0390625 C8.16537214 16.09297619 8.16537214 16.09297619 7 14 C6.86722656 14.99902344 6.73445312 15.99804688 6.59765625 17.02734375 C6.42105469 18.31769531 6.24445313 19.60804688 6.0625 20.9375 C5.88847656 22.22527344 5.71445313 23.51304687 5.53515625 24.83984375 C5 28 5 28 4 29 C2.00041636 29.04080783 -0.00045254 29.04254356 -2 29 C-2.23433214 22.26946014 -1.78942325 16.1248451 -0.4453125 9.52734375 C0.12714336 6.27840564 0.14615107 3.28839913 0 0 Z " fill="#AA5EC9" transform="translate(202,332)"/>
<path d="M0 0 C3.43734063 -0.08703823 6.87439837 -0.14040272 10.3125 -0.1875 C11.28896484 -0.21263672 12.26542969 -0.23777344 13.27148438 -0.26367188 C14.20927734 -0.27333984 15.14707031 -0.28300781 16.11328125 -0.29296875 C16.97735596 -0.3086792 17.84143066 -0.32438965 18.73168945 -0.34057617 C21 0 21 0 22.79638672 1.36669922 C24.56986395 3.77330422 24.14964589 5.38131394 23.8125 8.3125 C23.69648438 9.36566406 23.58046875 10.41882813 23.4609375 11.50390625 C22.69095857 17.34400067 21.88731052 23.17648631 21 29 C18.69 29 16.38 29 14 29 C14.33 24.71 14.66 20.42 15 16 C11.7 16 8.4 16 5 16 C4.67 20.29 4.34 24.58 4 29 C1.69 29 -0.62 29 -3 29 C-3.125 21.375 -3.125 21.375 -2 18 C-1.79040462 16.59414375 -1.61520745 15.18295007 -1.46484375 13.76953125 C-1.37783203 12.96708984 -1.29082031 12.16464844 -1.20117188 11.33789062 C-1.11416016 10.50451172 -1.02714844 9.67113281 -0.9375 8.8125 C-0.84662109 7.96751953 -0.75574219 7.12253906 -0.66210938 6.25195312 C-0.4384388 4.16828515 -0.21882849 2.08418205 0 0 Z " fill="#AB5ECA" transform="translate(167,332)"/>
<path d="M0 0 C6.93 0 13.86 0 21 0 C21.0268245 4.14587582 21.04675315 8.29158038 21.0625 12.4375 C21.07087891 13.62150391 21.07925781 14.80550781 21.08789062 16.02539062 C21.09272461 17.71245117 21.09272461 17.71245117 21.09765625 19.43359375 C21.10551147 20.99678345 21.10551147 20.99678345 21.11352539 22.59155273 C21 25 21 25 20 26 C18.5112814 26.08669432 17.018555 26.10703494 15.52734375 26.09765625 C14.71773193 26.09515869 13.90812012 26.09266113 13.07397461 26.09008789 C12.03893799 26.08098389 11.00390137 26.07187988 9.9375 26.0625 C6.658125 26.041875 3.37875 26.02125 0 26 C0 17.42 0 8.84 0 0 Z " fill="#1DCBCE" transform="translate(312,114)"/>
<path d="M0 0 C6.6 0 13.2 0 20 0 C20 8.58 20 17.16 20 26 C13.4 26 6.8 26 0 26 C0 17.42 0 8.84 0 0 Z " fill="#A059C5" transform="translate(153,262)"/>
<path d="M0 0 C6.6 0 13.2 0 20 0 C20 8.25 20 16.5 20 25 C13.4 25 6.8 25 0 25 C0 16.75 0 8.5 0 0 Z " fill="#A55BC9" transform="translate(180,275)"/>
<path d="M0 0 C1.18613892 0.00785522 1.18613892 0.00785522 2.39624023 0.01586914 C3.16524658 0.0183667 3.93425293 0.02086426 4.7265625 0.0234375 C5.70939209 0.0325415 6.69222168 0.04164551 7.70483398 0.05102539 C12.37639648 0.08196289 12.37639648 0.08196289 17.14233398 0.11352539 C17.14233398 8.36352539 17.14233398 16.61352539 17.14233398 25.11352539 C10.54233398 25.11352539 3.94233398 25.11352539 -2.85766602 25.11352539 C-2.88449216 21.13431445 -2.90441995 17.15528198 -2.92016602 13.17602539 C-2.92854492 12.0397168 -2.93692383 10.9034082 -2.94555664 9.73266602 C-2.9487793 8.65307617 -2.95200195 7.57348633 -2.95532227 6.46118164 C-2.96055908 5.46094971 -2.9657959 4.46071777 -2.97119141 3.43017578 C-2.81151844 0.17181707 -2.81151844 0.17181707 0 0 Z " fill="#1ED6D6" transform="translate(341.857666015625,126.886474609375)"/>
<path d="M0 0 C6.27 0 12.54 0 19 0 C18.67 7.59 18.34 15.18 18 23 C11.73 23 5.46 23 -1 23 C-1.87890625 13.72265625 -1.87890625 13.72265625 -2 11 C-1.67 10.67 -1.34 10.34 -1 10 C-0.76712992 8.31816052 -0.58735834 6.6287584 -0.4375 4.9375 C-0.293125 3.308125 -0.14875 1.67875 0 0 Z " fill="#1EDFDA" transform="translate(315,153)"/>
<path d="M0 0 C6.6 0 13.2 0 20 0 C20 1.65 20 3.3 20 5 C15.71 5 11.42 5 7 5 C7 7.31 7 9.62 7 12 C9.97 12 12.94 12 16 12 C16 13.32 16 14.64 16 16 C12.7 16 9.4 16 6 16 C5.67 18.64 5.34 21.28 5 24 C8.96 24 12.92 24 17 24 C17 25.65 17 27.3 17 29 C10.4 29 3.8 29 -3 29 C-2.5359375 24.8853125 -2.5359375 24.8853125 -2.0625 20.6875 C-1.29128961 13.7977296 -0.59210302 6.90786858 0 0 Z " fill="#A65CC6" transform="translate(365,332)"/>
<path d="M0 0 C0.99 0.33 1.98 0.66 3 1 C2.84660156 1.53625 2.69320312 2.0725 2.53515625 2.625 C-0.80760393 17.46002328 1.14736132 33.11272488 3 48 C1.49440461 46.03617993 0.10868317 44.21736634 -1 42 C-3.76223278 44.76223278 -3.57856291 47.20706617 -4 51 C-8.01939328 44.3010112 -7.18281542 35.7828095 -7.1875 28.25 C-7.19974609 27.2290625 -7.21199219 26.208125 -7.22460938 25.15625 C-7.23779479 18.22951222 -6.47578198 11.76602139 -5 5 C-4.34 5 -3.68 5 -3 5 C-2.814375 4.0409375 -2.814375 4.0409375 -2.625 3.0625 C-2.41875 2.381875 -2.2125 1.70125 -2 1 C-1.34 0.67 -0.68 0.34 0 0 Z " fill="#653CB0" transform="translate(198,187)"/>
<path d="M0 0 C2.97 0 5.94 0 9 0 C9.99 2.31 10.98 4.62 12 7 C13.32 4.69 14.64 2.38 16 0 C18.31 0 20.62 0 23 0 C21.91441436 3.15806731 20.55790633 5.63022076 18.625 8.3125 C14.61918768 14.45791534 13.53569408 21.93065965 12 29 C9.69 29 7.38 29 5 29 C5.11859375 28.12859375 5.2371875 27.2571875 5.359375 26.359375 C6.42305564 16.53096592 5.57943398 8.36915097 0 0 Z " fill="#A75CC7" transform="translate(299,332)"/>
<path d="M0 0 C2.64 0 5.28 0 8 0 C8.66 2.64 9.32 5.28 10 8 C10.66 8 11.32 8 12 8 C12.309375 7.05125 12.61875 6.1025 12.9375 5.125 C14 2 14 2 15 0 C17.31 0 19.62 0 22 0 C21.38798064 3.07369724 20.38444512 5.16948049 18.625 7.75 C14.36032747 14.3989563 12.51456024 21.3024703 11 29 C9.02 29 7.04 29 5 29 C5.03480469 28.10539062 5.06960937 27.21078125 5.10546875 26.2890625 C5.27795059 18.5848737 4.78811418 12.19469463 2 5 C1.608125 3.96875 1.21625 2.9375 0.8125 1.875 C0.4103125 0.946875 0.4103125 0.946875 0 0 Z " fill="#A85CC8" transform="translate(133,332)"/>
<path d="M0 0 C6.93 0 13.86 0 21 0 C21 8.25 21 16.5 21 25 C16.38 25 11.76 25 7 25 C7.37125 26.77375 7.7425 28.5475 8.125 30.375 C8.7578125 33.3984375 8.7578125 33.3984375 9 36 C7 38 7 38 4.6171875 38.1796875 C0.94266004 36.52340796 0.48441655 34.36341905 -0.9296875 30.7121582 C-1.24164063 29.858396 -1.55359375 29.00463379 -1.875 28.125 C-4.87663161 20.42682507 -8.15709912 13.73465903 -13 7 C-12.22140625 7.33902344 -11.4428125 7.67804688 -10.640625 8.02734375 C-7.76678636 9.08590266 -6.81968962 8.90632881 -4 8 C-3.67 8.33 -3.34 8.66 -3 9 C-0.23333333 6.63333333 -0.23333333 6.63333333 0 0 Z M1 1 C0.855625 2.60875 0.71125 4.2175 0.5625 5.875 C0.125 10.75 0.125 10.75 -1 13 C-0.91255632 14.87862875 -0.75824458 16.75455181 -0.5625 18.625 C-0.376875 20.39875 -0.19125 22.1725 0 24 C6.27 24 12.54 24 19 24 C19.33 16.41 19.66 8.82 20 1 C13.73 1 7.46 1 1 1 Z " fill="#22B2C4" transform="translate(314,152)"/>
<path d="M0 0 C6.93 0 13.86 0 21 0 C21 1.65 21 3.3 21 5 C18.69 5 16.38 5 14 5 C13.93941406 5.97839844 13.87882812 6.95679688 13.81640625 7.96484375 C13.36678488 14.99968883 12.85950635 22.00116259 12 29 C9.36 29 6.72 29 4 29 C4.99 21.08 5.98 13.16 7 5 C5.02 5 3.04 5 1 5 C0.67 3.35 0.34 1.7 0 0 Z " fill="#A65BC6" transform="translate(333,332)"/>
<path d="M0 0 C2.31 0 4.62 0 7 0 C6.52279768 9.78264757 5.70426788 19.33696657 4 29 C1.69 29 -0.62 29 -3 29 C-2.52279768 19.21735243 -1.70426788 9.66303343 0 0 Z " fill="#A85DC8" transform="translate(245,332)"/>
<path d="M0 0 C1.32 0 2.64 0 4 0 C3.67 2.31 3.34 4.62 3 7 C2.34 6.67 1.68 6.34 1 6 C0.59910156 6.75023437 0.19820313 7.50046875 -0.21484375 8.2734375 C-8.63590496 23.43516676 -19.84949693 34.37874112 -36 41 C-38.43394944 41.62282881 -40.4823925 41.8855633 -43 42 C-42.67 41.34 -42.34 40.68 -42 40 C-42.66 39.67 -43.32 39.34 -44 39 C-44 38.34 -44 37.68 -44 37 C-43.41734375 36.92523438 -42.8346875 36.85046875 -42.234375 36.7734375 C-29.29572118 34.69837038 -17.66475707 27.99526167 -9.79492188 17.37353516 C-6.0395393 11.85007271 -2.94137777 5.99036693 0 0 Z " fill="#101147" transform="translate(317,236)"/>
<path d="M0 0 C1.8125 0.75 1.8125 0.75 2.8125 2.75 C2.09964844 3.22308594 1.38679688 3.69617188 0.65234375 4.18359375 C-5.90395941 8.71035489 -10.76784509 13.13167838 -15.1875 19.75 C-15.69796875 20.46285156 -16.2084375 21.17570312 -16.734375 21.91015625 C-22.17898928 30.09111018 -25.65690261 40.31377155 -27.63745117 49.93603516 C-27.81896729 50.53464355 -28.0004834 51.13325195 -28.1875 51.75 C-29.1775 52.245 -29.1775 52.245 -30.1875 52.75 C-30.8475 53.74 -31.5075 54.73 -32.1875 55.75 C-31.44422451 43.703811 -27.78316591 34.38020655 -22.1875 23.75 C-21.51729665 22.41844088 -20.849097 21.08585614 -20.1875 19.75 C-19.5275 19.75 -18.8675 19.75 -18.1875 19.75 C-18.1875 18.76 -18.1875 17.77 -18.1875 16.75 C-17.5275 16.75 -16.8675 16.75 -16.1875 16.75 C-15.91679687 16.16605469 -15.64609375 15.58210937 -15.3671875 14.98046875 C-14.19340733 12.76116915 -12.92171674 10.98438838 -11.3125 9.0625 C-10.82007813 8.46050781 -10.32765625 7.85851562 -9.8203125 7.23828125 C-7.96272902 5.54512501 -6.64010887 5.14815079 -4.1875 4.75 C-4.1875 4.09 -4.1875 3.43 -4.1875 2.75 C-4.8475 2.42 -5.5075 2.09 -6.1875 1.75 C-3.9127187 0.36888278 -2.68578639 -0.30694702 0 0 Z " fill="#0F1348" transform="translate(239.1875,136.25)"/>
<path d="M0 0 C0 3.71242539 -1.03024313 4.78825144 -3.125 7.8125 C-7.31788682 14.20368174 -10.14174894 20.93650601 -13 28 C-13.9900262 30.33775417 -14.99421896 32.66895453 -16 35 C-16.99 35 -17.98 35 -19 35 C-19.33 35.66 -19.66 36.32 -20 37 C-20.98020375 38.0194119 -21.97803008 39.02246356 -23 40 C-21.48859417 29.12762906 -16.47558384 19.38940322 -11 10 C-10.34 10 -9.68 10 -9 10 C-9 9.34 -9 8.68 -9 8 C-7.28515625 6.30859375 -7.28515625 6.30859375 -5.0625 4.4375 C-4.33160156 3.81746094 -3.60070312 3.19742188 -2.84765625 2.55859375 C-2.23792969 2.04425781 -1.62820312 1.52992188 -1 1 C-0.67 0.67 -0.34 0.34 0 0 Z " fill="#4C2FA9" transform="translate(217,152)"/>
<path d="M0 0 C0.495 0.99 0.495 0.99 1 2 C-0.06095874 4.56020528 -1.18037927 6.97489784 -2.4375 9.4375 C-2.98458618 10.51632446 -2.98458618 10.51632446 -3.54272461 11.61694336 C-9.73473315 23.53160699 -17.66959375 33.66856066 -29 41 C-29.66 41 -30.32 41 -31 41 C-31 39.68 -31 38.36 -31 37 C-31.66 36.34 -32.32 35.68 -33 35 C-32.09121094 34.50693359 -32.09121094 34.50693359 -31.1640625 34.00390625 C-16.86229658 25.88490375 -7.45537402 14.51647346 0 0 Z " fill="#AA5DC9" transform="translate(316,248)"/>
<path d="M0 0 C0.99 0 1.98 0 3 0 C1.33835853 6.07065606 -1.86232743 10.68233659 -5.3671875 15.81445312 C-8.60360735 20.76004737 -10.06965843 25.18403231 -11 31 C-11.20882813 32.15628906 -11.41765625 33.31257813 -11.6328125 34.50390625 C-11.79523438 35.51324219 -11.95765625 36.52257812 -12.125 37.5625 C-12.29257812 38.59503906 -12.46015625 39.62757813 -12.6328125 40.69140625 C-12.75398438 41.45324219 -12.87515625 42.21507812 -13 43 C-14.32 43 -15.64 43 -17 43 C-16.26584089 30.15221566 -13.69570678 21.9742912 -7 11 C-5.87463418 9.10438379 -4.74960259 7.2085691 -3.625 5.3125 C-1.13043478 1.13043478 -1.13043478 1.13043478 0 0 Z " fill="#29BFD3" transform="translate(277,192)"/>
<path d="M0 0 C0.33 0 0.66 0 1 0 C2.46556588 6.13307463 1.46488836 9.40986506 -1.5 14.875 C-2.05312866 15.92880859 -2.05312866 15.92880859 -2.61743164 17.00390625 C-8.37820798 27.71610389 -16.15151124 37.12523698 -27 43 C-27.66 43 -28.32 43 -29 43 C-29 42.34 -29 41.68 -29 41 C-28.01 41 -27.02 41 -26 41 C-26 40.34 -26 39.68 -26 39 C-24.87474845 37.97350723 -23.69717355 37.00412304 -22.5 36.0625 C-12.26724791 27.31223143 -5.37565837 14.94002376 -2 2 C-1.34 1.34 -0.68 0.68 0 0 Z " fill="#518DDF" transform="translate(317,226)"/>
<path d="M0 0 C0.33 0 0.66 0 1 0 C1.33198582 13.06321656 1.34229793 25.30619492 -2 38 C-2.19722656 38.79019531 -2.39445312 39.58039063 -2.59765625 40.39453125 C-2.73042969 40.92433594 -2.86320312 41.45414063 -3 42 C-4.32 42 -5.64 42 -7 42 C-8.16384134 37.05174743 -7.67338225 33.0034276 -6.5625 28.125 C-6.41490234 27.43664062 -6.26730469 26.74828125 -6.11523438 26.0390625 C-5.75317961 24.35725971 -5.37793884 22.67830466 -5 21 C-4.01 20.67 -3.02 20.34 -2 20 C-0.56841389 16.09938585 -0.65924287 11.86496612 -0.4375 7.75 C-0.37272461 6.63238281 -0.37272461 6.63238281 -0.30664062 5.4921875 C-0.20103275 3.661651 -0.10005799 1.83084824 0 0 Z " fill="#3C9ED5" transform="translate(323,189)"/>
<path d="M0 0 C0.99 0.33 1.98 0.66 3 1 C3.33 1.99 3.66 2.98 4 4 C4.66 4.33 5.32 4.66 6 5 C6.41064453 6.76586914 6.41064453 6.76586914 6.6328125 9.03515625 C6.71660156 9.84404297 6.80039063 10.65292969 6.88671875 11.48632812 C6.96535156 12.33646484 7.04398438 13.18660156 7.125 14.0625 C7.21136719 14.91650391 7.29773438 15.77050781 7.38671875 16.65039062 C7.59947228 18.76610633 7.80079953 20.88296524 8 23 C6.49440461 21.03617993 5.10868317 19.21736634 4 17 C1.23776722 19.76223278 1.42143709 22.20706617 1 26 C-0.62270241 23.13806263 -1.24953589 21.09653384 -1.23046875 17.8125 C-1.22853516 17.03132813 -1.22660156 16.25015625 -1.22460938 15.4453125 C-1.21236328 14.63835937 -1.20011719 13.83140625 -1.1875 13 C-1.18685547 12.19304687 -1.18621094 11.38609375 -1.18554688 10.5546875 C-1.15801978 6.84770559 -1.0100235 3.58671688 0 0 Z " fill="#8048B3" transform="translate(193,212)"/>
<path d="M0 0 C0.33 0.66 0.66 1.32 1 2 C1.66 2.33 2.32 2.66 3 3 C3.40461395 7.39628616 2.44731837 9.25918568 -0.25 12.6875 C-3.83727824 17.55025494 -6.05314425 22.30618068 -8 28 C-8.61875 29.794375 -8.61875 29.794375 -9.25 31.625 C-9.4975 32.40875 -9.745 33.1925 -10 34 C-10.33 34 -10.66 34 -11 34 C-10.46986048 27.57445356 -9.289942 21.95799595 -7.1875 15.875 C-6.8152832 14.73611328 -6.8152832 14.73611328 -6.43554688 13.57421875 C-4.77719907 8.67091047 -2.70019479 4.41637065 0 0 Z " fill="#33A8D3" transform="translate(221,159)"/>
<path d="M0 0 C2.97 0 5.94 0 9 0 C9.38885039 1.78871178 9.76069196 3.58112874 10.125 5.375 C10.33382813 6.37273437 10.54265625 7.37046875 10.7578125 8.3984375 C10.83773438 9.25695312 10.91765625 10.11546875 11 11 C10.34 11.66 9.68 12.32 9 13 C6.51953125 12.93359375 6.51953125 12.93359375 4 12 C2.63671875 9.78515625 2.63671875 9.78515625 1.6875 7.0625 C1.36136719 6.16660156 1.03523438 5.27070313 0.69921875 4.34765625 C0 2 0 2 0 0 Z " fill="#2ABAD2" transform="translate(312,177)"/>
<path d="M0 0 C0.66 0.33 1.32 0.66 2 1 C1.175 1.804375 0.35 2.60875 -0.5 3.4375 C-3.11638731 5.52263018 -3.11638731 5.52263018 -3 7 C-2.01 7.33 -1.02 7.66 0 8 C-1.04800781 8.92232422 -1.04800781 8.92232422 -2.1171875 9.86328125 C-3.48230469 11.07564453 -3.48230469 11.07564453 -4.875 12.3125 C-5.77992188 13.11300781 -6.68484375 13.91351563 -7.6171875 14.73828125 C-10.13212311 16.95811057 -10.13212311 16.95811057 -12 20 C-12.99 20 -13.98 20 -15 20 C-14.49753244 15.38567292 -12.7039147 12.95383223 -9.75 9.4375 C-8.59757813 8.04337891 -8.59757813 8.04337891 -7.421875 6.62109375 C-5.10515063 4.11380012 -2.7221151 2.05123921 0 0 Z " fill="#23C4D0" transform="translate(237,141)"/>
<path d="M0 0 C3.3 0 6.6 0 10 0 C10.04241723 2.33294775 10.04092937 4.66702567 10 7 C9 8 9 8 6.93359375 8.09765625 C6.10988281 8.08605469 5.28617187 8.07445312 4.4375 8.0625 C3.61121094 8.05347656 2.78492188 8.04445313 1.93359375 8.03515625 C1.29550781 8.02355469 0.65742188 8.01195312 0 8 C0 5.36 0 2.72 0 0 Z " fill="#1A114C" transform="translate(269,348)"/>
<path d="M0 0 C3.63 0 7.26 0 11 0 C10.67 2.31 10.34 4.62 10 7 C6.7 7 3.4 7 0 7 C0 4.69 0 2.38 0 0 Z " fill="#1F1350" transform="translate(173,337)"/>
<path d="M0 0 C0.95465783 2.16967689 1.14401212 3.56328793 0.3984375 5.82421875 C-0.35870385 7.5684743 -1.17609198 9.28627131 -2 11 C-2.99 11 -3.98 11 -5 11 C-5.33 11.66 -5.66 12.32 -6 13 C-6.98020375 14.0194119 -7.97803008 15.02246356 -9 16 C-8.32584613 10.7415998 -6.75734451 5.97361654 -5 1 C-3.35 0.67 -1.7 0.34 0 0 Z " fill="#5534AC" transform="translate(203,176)"/>
<path d="M0 0 C2.35953094 2.35953094 2.49141413 3.77895617 3 7 C3.66 7 4.32 7 5 7 C5.66 9.64 6.32 12.28 7 15 C4.0625 14.1875 4.0625 14.1875 1 13 C0.67 12.01 0.34 11.02 0 10 C-0.99 9.67 -1.98 9.34 -3 9 C-3.36923077 3.46153846 -3.36923077 3.46153846 -1.5 1.125 C-1.005 0.75375 -0.51 0.3825 0 0 Z " fill="#9050B9" transform="translate(197,228)"/>
<path d="M0 0 C1.32 0 2.64 0 4 0 C3.67 2.31 3.34 4.62 3 7 C2.34 6.67 1.68 6.34 1 6 C0.52820313 6.95712891 0.52820313 6.95712891 0.046875 7.93359375 C-0.38109375 8.75988281 -0.8090625 9.58617187 -1.25 10.4375 C-1.87648438 11.67306641 -1.87648438 11.67306641 -2.515625 12.93359375 C-4 15 -4 15 -6.171875 15.78515625 C-7.07679688 15.89150391 -7.07679688 15.89150391 -8 16 C-6.57250019 12.20950293 -4.83763458 8.72877544 -2.875 5.1875 C-2.33617187 4.21167969 -1.79734375 3.23585937 -1.2421875 2.23046875 C-0.83226562 1.49441406 -0.42234375 0.75835937 0 0 Z " fill="#0E1F50" transform="translate(317,236)"/>
<path d="M0 0 C2.31 0 4.62 0 7 0 C7 2.31 7 4.62 7 7 C4.69 7 2.38 7 0 7 C0 4.69 0 2.38 0 0 Z " fill="#1C124D" transform="translate(270,337)"/>
<path d="M0 0 C0.33 0 0.66 0 1 0 C1 2.97 1 5.94 1 9 C1.66 9.33 2.32 9.66 3 10 C2.67 12.97 2.34 15.94 2 19 C0.68 19 -0.64 19 -2 19 C-1.85761163 16.95809019 -1.71092972 14.91647955 -1.5625 12.875 C-1.48128906 11.73804688 -1.40007812 10.60109375 -1.31640625 9.4296875 C-1.02269035 6.2459522 -0.56875687 3.14489093 0 0 Z " fill="#2FB3D1" transform="translate(262,216)"/>
<path d="M0 0 C2.475 0.495 2.475 0.495 5 1 C5.33 4.3 5.66 7.6 6 11 C5.01 11.33 4.02 11.66 3 12 C2.01 8.04 1.02 4.08 0 0 Z " fill="#27C0D1" transform="translate(255,192)"/>
<path d="M0 0 C0.66 0.33 1.32 0.66 2 1 C0.75645114 2.29787866 -0.4951264 3.58806759 -1.75 4.875 C-2.44609375 5.59429687 -3.1421875 6.31359375 -3.859375 7.0546875 C-5.87941849 8.89042045 -7.55549685 9.85660337 -10 11 C-11.11037364 11.84042042 -12.19607509 12.71479212 -13.25 13.625 C-14.1575 14.40875 -15.065 15.1925 -16 16 C-14.42626408 12.19827839 -12.02378358 9.75658012 -9.125 6.875 C-8.26132813 6.00617188 -7.39765625 5.13734375 -6.5078125 4.2421875 C-4.34498764 2.30844689 -2.72224866 0.95455473 0 0 Z " fill="#462B9A" transform="translate(225,144)"/>
<path d="M0 0 C0.33 0.66 0.66 1.32 1 2 C-0.19427286 4.73650671 -1.44471772 7.35238083 -2.8125 10 C-3.18181641 10.73734375 -3.55113281 11.4746875 -3.93164062 12.234375 C-6.71898191 17.71898191 -6.71898191 17.71898191 -9 20 C-9.66796875 18.26953125 -9.66796875 18.26953125 -10 16 C-8.92578125 13.88671875 -8.92578125 13.88671875 -7.3125 11.6875 C-4.61611954 7.89119745 -2.25314323 4.07298969 0 0 Z " fill="#894DB5" transform="translate(316,248)"/>
<path d="M0 0 C0.33 0 0.66 0 1 0 C1 3.3 1 6.6 1 10 C-1.97 9.505 -1.97 9.505 -5 9 C-5 7.02 -5 5.04 -5 3 C-4.34 3 -3.68 3 -3 3 C-1.97980427 2.0206121 -0.97850195 1.02104551 0 0 Z " fill="#6F41BB" transform="translate(197,207)"/>
<path d="M0 0 C1.1484375 1.515625 1.1484375 1.515625 2 4 C1.33388902 6.72236663 0.59992701 9.14527076 -0.375 11.75 C-0.6225 12.44738281 -0.87 13.14476562 -1.125 13.86328125 C-1.73656427 15.58036556 -2.36652005 17.2908796 -3 19 C-3.33 19 -3.66 19 -4 19 C-3.46048934 12.31006781 -2.11293829 6.36539272 0 0 Z " fill="#258BB0" transform="translate(214,174)"/>
<path d="M0 0 C0.99 0 1.98 0 3 0 C1.03030303 6.81818182 1.03030303 6.81818182 -2 9 C-2.99 9 -3.98 9 -5 9 C-3.49901406 5.88256767 -1.97568178 2.84498177 0 0 Z " fill="#2CBCD4" transform="translate(277,192)"/>
<path d="M0 0 C0.33 0 0.66 0 1 0 C0.67 3.63 0.34 7.26 0 11 C-0.99 11 -1.98 11 -3 11 C-3.99 11.495 -3.99 11.495 -5 12 C-3.68938409 7.76570244 -2.05643741 3.92592596 0 0 Z " fill="#271859" transform="translate(224,345)"/>
<path d="M0 0 C-0.33 1.65 -0.66 3.3 -1 5 C-1.5775 5.0825 -2.155 5.165 -2.75 5.25 C-5.6159304 6.20531013 -6.9990764 7.78469173 -9 10 C-9.66 9.67 -10.32 9.34 -11 9 C-9.54782324 7.49403892 -8.08807139 5.99537896 -6.625 4.5 C-5.40683594 3.24703125 -5.40683594 3.24703125 -4.1640625 1.96875 C-2 0 -2 0 0 0 Z " fill="#9C56C2" transform="translate(307,266)"/>
<path d="M0 0 C2.29013653 3.4352048 2.17842973 4.985331 2 9 C1.34 9 0.68 9 0 9 C-0.66 9.99 -1.32 10.98 -2 12 C-1.85962479 10.18706911 -1.71255111 8.3746557 -1.5625 6.5625 C-1.48128906 5.55316406 -1.40007812 4.54382813 -1.31640625 3.50390625 C-1 1 -1 1 0 0 Z " fill="#321E63" transform="translate(209,345)"/>
<path d="M0 0 C0.33 0.66 0.66 1.32 1 2 C1.66 2.33 2.32 2.66 3 3 C1.1875 6 1.1875 6 -1 9 C-1.99 9 -2.98 9 -4 9 C-2.94124926 5.59687262 -1.99097846 2.98646769 0 0 Z " fill="#24B0C5" transform="translate(221,159)"/>
<path d="M0 0 C0.474375 0.66 0.94875 1.32 1.4375 2 C2.2109375 2.99 2.2109375 2.99 3 4 C3.33 4 3.66 4 4 4 C4 5.65 4 7.3 4 9 C2.68 8.34 1.36 7.68 0 7 C-0.99 7.66 -1.98 8.32 -3 9 C-2.01 6.03 -1.02 3.06 0 0 Z " fill="#8B4DB1" transform="translate(222,339)"/>
<path d="M0 0 C2.97 0 5.94 0 9 0 C8.67 1.32 8.34 2.64 8 4 C8 3.01 8 2.02 8 1 C3.60685207 2.01160848 3.60685207 2.01160848 0.625 5.125 C0.41875 5.74375 0.2125 6.3625 0 7 C-0.66 7 -1.32 7 -2 7 C-1.34 4.69 -0.68 2.38 0 0 Z " fill="#874BAF" transform="translate(225,332)"/>
<path d="M0 0 C0.99 0.33 1.98 0.66 3 1 C0.24829249 3.9555377 -2.41970299 6.11563315 -6 8 C-6.66 8 -7.32 8 -8 8 C-8 7.34 -8 6.68 -8 6 C-7.01 6 -6.02 6 -5 6 C-5 5.34 -5 4.68 -5 4 C-2.6875 1.8125 -2.6875 1.8125 0 0 Z " fill="#5380D3" transform="translate(296,261)"/>
<path d="M0 0 C0.66 0 1.32 0 2 0 C2 3.63 2 7.26 2 11 C1.01 11 0.02 11 -1 11 C-0.67 7.37 -0.34 3.74 0 0 Z " fill="#20D9DA" transform="translate(263,215)"/>
<path d="M0 0 C0.33 0.99 0.66 1.98 1 3 C-3.95 4.485 -3.95 4.485 -9 6 C-3.2 0 -3.2 0 0 0 Z " fill="#4285C7" transform="translate(287,267)"/>
<path d="M0 0 C1.8125 0.75 1.8125 0.75 2.8125 2.75 C0.8325 3.74 0.8325 3.74 -1.1875 4.75 C-1.1875 4.09 -1.1875 3.43 -1.1875 2.75 C-2.1775 3.08 -3.1675 3.41 -4.1875 3.75 C-4.8475 3.09 -5.5075 2.43 -6.1875 1.75 C-3.9127187 0.36888278 -2.68578639 -0.30694702 0 0 Z " fill="#1E1B58" transform="translate(239.1875,136.25)"/>
<path d="M0 0 C0 0.99 0 1.98 0 3 C0.99 3.66 1.98 4.32 3 5 C0.69 5.33 -1.62 5.66 -4 6 C-3.67 5.34 -3.34 4.68 -3 4 C-3.66 3.67 -4.32 3.34 -5 3 C-5 2.34 -5 1.68 -5 1 C-2 0 -2 0 0 0 Z " fill="#141F54" transform="translate(278,272)"/>
<path d="M0 0 C1.98 0 3.96 0 6 0 C5.67 0.99 5.34 1.98 5 3 C3.02 3 1.04 3 -1 3 C-0.67 2.01 -0.34 1.02 0 0 Z " fill="#08093B" transform="translate(278,273)"/>
<path d="M0 0 C2.475 0.495 2.475 0.495 5 1 C4.67 2.32 4.34 3.64 4 5 C3.01 5 2.02 5 1 5 C0.67 3.35 0.34 1.7 0 0 Z " fill="#22A9BE" transform="translate(255,192)"/>
<path d="M0 0 C1.13643966 3.40931897 0.86747764 4.00335456 -0.4375 7.1875 C-0.86869141 8.26064453 -0.86869141 8.26064453 -1.30859375 9.35546875 C-1.53675781 9.89816406 -1.76492187 10.44085938 -2 11 C-2.33 11 -2.66 11 -3 11 C-2.88590407 9.54077307 -2.75834456 8.08259402 -2.625 6.625 C-2.55539063 5.81289062 -2.48578125 5.00078125 -2.4140625 4.1640625 C-2 2 -2 2 0 0 Z " fill="#2BBCD4" transform="translate(218,167)"/>
<path d="M0 0 C1.32 0 2.64 0 4 0 C3.67 2.31 3.34 4.62 3 7 C1.68 6.01 0.36 5.02 -1 4 C-0.67 2.68 -0.34 1.36 0 0 Z " fill="#20235F" transform="translate(317,236)"/>
</svg>
